<svg width="792" height="288" viewBox="0 0 792 288" fill="none" xmlns="http://www.w3.org/2000/svg">
<circle cx="396" cy="228" r="60" fill="#E53838"/>
<circle cx="228" cy="228" r="60" fill="#E53838"/>
<circle cx="732" cy="228" r="60" fill="#E53838"/>
<circle cx="60" cy="228" r="60" fill="#E53838"/>
<circle cx="564" cy="228" r="60" fill="#E53838"/>
<path d="M323.025 120V32.4H293.184V0H390.562V32.4H360.72V120H323.025Z" fill="white"/>
<path d="M197.492 120V0H235.187V43.2H264.68V0H302.374V120H264.68V76.1143H235.187V120H197.492Z" fill="white"/>
<path d="M163.591 120C131.321 120 105.871 97.9121 105.871 61.6484V58.5165C105.871 23.5714 130.822 0 163.591 0C180.391 0 193.532 4.94506 205.508 14.6703L186.546 40.8791C180.558 35.6044 173.738 31.8132 165.088 31.8132C151.947 31.8132 142.133 42.3626 142.133 59.5055V61.4835C142.133 79.945 151.947 89.8352 164.755 89.8352C169.579 89.8352 172.241 89.011 174.403 87.8571V74.011H158.434V48.956H207.671V105.494C196.36 113.901 181.556 120 163.591 120Z" fill="white"/>
<path d="M116.052 120L75.332 87.5V0H116.052V120Z" fill="white"/>
<path d="M0 120V0H38.2413V87.4286H75.3398V120H0Z" fill="white"/>
<path d="M505.194 0C482.941 8.58956 468.277 30.3408 468.277 58.5986V61.7549C468.277 89.9551 482.777 111.471 504.905 120H462.168V0H505.194ZM579.322 92.6826C583.858 106.458 593.108 115.334 605.73 120H549.357C562.423 114.973 572.897 105.437 579.322 92.6826ZM708.392 30.5615V120H656.269C674.743 113.216 686.127 97.4701 686.127 70.2197V30.5615H708.392ZM791.999 120H749.374V30.5615H781.819V0H791.999V120ZM527.144 29.8428C539.77 29.8429 547.417 40.5389 547.417 58.7744V61.4043C547.417 79.6396 539.948 90.1601 527.321 90.1602C514.695 90.1602 507.047 79.4639 507.047 61.2285V58.5986C507.047 40.3631 514.872 29.8428 527.144 29.8428ZM646.511 71.833C646.511 84.2024 640.151 89.4023 631.246 89.4023C622.342 89.4023 615.982 84.0236 615.981 71.2959V0H646.511V71.833ZM576.184 21.5088C569.788 11.6547 560.664 4.22948 549.645 0H576.184V21.5088Z" fill="white"/>
<path d="M423.104 0C441.723 0 456.863 3.81208 470.784 14.2539L453.209 40.2764C444.334 34.1438 433.023 29.8341 422.582 29.834C417.013 29.834 414.229 32.155 414.229 34.9727V35.3037C414.229 38.7844 417.883 40.6078 429.891 44.4199C444.77 48.3841 457.034 53.1793 464.492 60.9639V104.499C456.288 114.347 442.16 120 424.496 120C403.788 120 385.342 114.696 370.551 102.928L388.648 77.2373C400.481 85.6903 413.185 90.166 424.844 90.166C431.63 90.166 434.241 87.8454 434.241 84.6963V84.3643C434.241 80.8838 430.586 78.8952 419.449 75.7461C395.087 68.7848 376.293 60.663 376.293 38.4531V37.79C376.293 15.9117 393.869 0.000107843 423.104 0Z" fill="white"/>
</svg>
