<svg width="2540" height="1000" viewBox="0 0 2540 1000" fill="none" xmlns="http://www.w3.org/2000/svg">
<path d="M407.749 8.18582C417.587 5.68018 431.194 2.96575 438.102 1.92173C445.01 1.08652 544.86 0.46011 659.991 0.668913C852.784 1.08652 870.577 1.50412 885.021 4.84497C893.603 6.933 904.489 10.2738 909.094 12.5707C913.699 14.6587 921.654 19.8788 926.887 24.4725C932.12 28.8573 938.609 37.2094 946.773 53.9137L957.24 43.4735C962.892 37.627 977.126 26.5605 988.639 18.8348C1004.55 8.18582 1012.71 4.21856 1022.13 2.13053C1031.34 0.251307 1055.83 -0.166299 1114.24 0.251307C1173.27 0.877716 1195.88 1.71293 1202.16 3.80096C1207.39 5.68018 1215.34 11.5267 1223.09 19.4612C1230.83 27.1869 1238.37 37.4182 1242.35 45.7704C1245.91 53.2873 1251.35 67.4859 1254.28 77.7172C1257.21 87.7398 1260.35 95.8831 1261.19 95.8831C1262.23 95.6743 1266.63 89.619 1271.23 82.1021C1275.84 74.5852 1285.68 62.2658 1293.21 54.7489C1300.75 47.232 1312.47 37.2094 1319.38 32.6158C1326.29 27.8133 1337.8 21.5492 1344.92 18.2084C1352.25 15.0763 1367.74 9.85624 1401.02 1.08652L1628.14 0.251307C1830.98 -0.375102 1856.73 0.0425036 1869.92 2.96575C1878.08 4.84497 1886.04 7.76821 1887.71 9.43864C1890.43 12.1531 1893.36 11.7355 1934.81 0.877716L2181.82 0.251307C2379.22 -0.166299 2431.34 0.251307 2441.18 2.33934C2450.18 4.21856 2456.25 7.35061 2462.74 12.9883C2467.76 17.1643 2472.16 22.5932 2472.79 24.8901C2473.62 28.4397 2475.51 29.0661 2485.77 29.0661C2492.46 29.0661 2502.09 30.3189 2507.33 31.7806C2512.56 33.2422 2519.89 36.583 2523.45 39.0887C2527.21 41.5943 2532.24 47.232 2534.33 51.408C2536.42 55.7929 2538.94 63.5186 2539.56 68.7387C2540.61 75.2116 2539.77 82.3109 2537.05 91.707C2534.75 99.2239 2499.37 180.031 2458.13 271.278C2417.11 362.524 2381.52 441.034 2379.22 445.628C2376.91 450.222 2372.31 456.695 2369.17 460.244C2365.19 464.629 2363.1 469.64 2362.05 476.949C2361.01 484.465 2341.33 528.314 2289.41 638.771C2250.06 722.083 2215.94 793.494 2213.64 797.461C2211.33 801.428 2206.1 808.319 2201.91 812.704C2197.73 817.089 2191.66 822.309 2188.1 823.979C2184.54 825.858 2177.21 828.573 2171.35 830.034C2165.28 831.705 2149.79 832.958 2135.35 832.958C2109.6 832.958 2109.6 832.958 2110.86 837.551C2111.48 840.266 2111.07 847.574 2109.6 853.838C2108.14 860.102 2102.69 875.136 2097.46 887.246C2092.44 899.357 2085.32 914.808 2081.97 921.699C2078.62 928.589 2071.92 938.194 2067.11 943.206C2062.29 948.217 2054.97 954.272 2050.99 956.778C2047.01 959.075 2039.06 962.415 2033.19 963.877C2025.66 965.756 2001.38 966.592 1946.32 966.8C1904.25 967.009 1860.08 967.218 1847.94 967.218C1835.8 967.218 1821.35 967.009 1815.49 966.8C1809.84 966.383 1795.19 967.009 1783.05 967.635C1766.51 968.68 1757.93 968.262 1748.51 965.965C1739.71 963.668 1734.06 963.251 1729.67 964.712C1726.32 965.756 1705.18 966.591 1682.99 966.591C1658.91 966.591 1638.4 965.548 1631.91 964.086C1623.12 961.998 1618.51 959.283 1610.35 950.931C1601.35 942.162 1599.25 938.612 1596.95 927.963C1594.86 917.94 1594.86 913.347 1596.95 904.995C1598.21 899.357 1605.12 881.818 1611.81 866.366C1618.72 850.915 1625 836.925 1625.63 835.254C1626.68 833.166 1625.63 832.54 1621.23 833.166C1616.21 834.002 1614.74 835.672 1610.56 847.574C1607.84 855.091 1596.11 882.862 1584.39 909.171C1572.67 935.48 1560.32 961.371 1556.97 966.591C1553.62 971.812 1547.76 978.493 1543.99 981.417C1540.22 984.34 1533.32 988.725 1528.71 991.021C1524.1 993.318 1515.31 996.45 1509.24 997.703C1503.38 998.956 1482.66 1000 1463.4 1000C1443.72 1000 1424.46 998.956 1419.86 997.703C1415.25 996.242 1408.55 992.274 1404.79 988.725C1401.23 985.175 1397.46 979.12 1396.41 975.152C1395.58 971.394 1393.69 967.636 1392.65 967.009C1391.6 966.383 1337.8 965.965 1273.33 966.174C1181.01 966.383 1153.59 965.965 1144.59 963.668C1134.75 961.371 1131.82 961.371 1124.7 963.877C1119.47 965.756 1108.79 966.8 1096.44 966.8C1085.56 966.592 1067.14 967.009 1055.62 967.844C1040.55 968.68 1031.55 968.262 1023.18 966.174C1016.9 964.504 1009.36 963.877 1006.43 964.503C1003.5 965.339 917.467 966.174 814.895 966.174C677.366 966.174 626.708 965.547 621.265 963.668C615.404 961.789 611.217 961.789 601.379 964.086C592.378 966.174 575.841 966.8 541.72 966.174C497.761 965.548 494.202 965.339 487.294 960.954C483.317 958.657 478.502 953.437 476.409 949.47C474.525 945.711 472.223 940.491 469.501 932.765L461.128 939.447C456.523 943.206 448.359 948.426 442.916 951.14C437.264 953.855 425.542 958.239 416.541 960.745C400.841 965.339 397.91 965.547 205.536 965.547L197.163 960.119C192.767 957.195 187.325 951.349 185.231 947.173C183.347 942.997 181.673 936.315 181.673 932.765C181.673 929.007 182.929 922.116 184.603 917.523C186.069 912.929 190.883 901.863 195.07 893.093C199.675 882.862 205.118 874.718 209.304 871.586C214.956 867.41 219.771 865.948 233.587 864.696L233.927 864.666C250.548 863.234 250.954 863.199 249.914 858.014C249.286 855.091 248.24 848.409 246.565 832.958H170.788C106.942 832.958 92.9169 832.54 83.2877 829.617C75.6123 827.39 69.3324 823.701 64.448 818.55C59.8428 813.957 56.0748 807.275 54.4002 801.22C52.9349 795.582 51.8882 788.9 51.8882 785.977C51.8882 781.801 50.8416 780.757 46.655 780.757C43.7244 780.757 37.0258 779.713 31.3739 778.251C25.3033 776.581 18.6048 772.822 13.9995 768.229C8.55695 763.217 5.20767 757.162 2.69572 748.392C-0.862891 736.699 -0.862891 734.82 2.48639 721.248C4.78901 711.225 24.8847 665.915 65.704 579.262C98.5688 509.104 128.922 444.375 133.527 435.188C137.923 426.001 145.249 413.472 150.064 407.626C155.297 400.735 158.646 394.263 158.646 390.922C158.646 387.581 159.902 380.482 161.577 374.635C163.252 368.997 190.255 307.818 221.864 238.913C253.473 170.008 281.104 110.29 283.198 106.323C285.082 102.356 291.78 92.3334 297.641 84.3989C303.712 76.4644 314.597 63.9362 322.133 56.6281C329.46 49.5288 341.601 39.5063 349.137 34.2862C356.672 29.2749 368.814 22.3844 376.349 19.0436C383.885 15.4939 397.91 10.6915 407.749 8.18582Z" fill="white" fill-opacity="0.9"/>
<path fill-rule="evenodd" clip-rule="evenodd" d="M1190.43 34.2864L1197.97 41.5945C1202.16 45.5618 1207.81 53.0787 1210.53 58.2988C1213.04 63.5188 1218.27 76.6734 1221.83 87.5312C1225.6 98.3889 1235.23 125.116 1243.6 146.622C1251.98 168.129 1259.09 185.877 1259.72 185.669C1260.35 185.669 1268.09 168.547 1277.1 147.666C1286.31 126.577 1296.77 104.653 1300.54 99.0153C1304.31 93.1689 1312.05 83.9815 1317.5 78.3439C1323.15 72.7062 1333.82 64.1452 1341.36 59.3428C1348.9 54.3315 1360.2 48.485 1366.48 45.9794C1372.76 43.6826 1384.48 40.1329 1392.65 38.4625C1405.21 35.9568 1441.42 35.3304 1636.52 35.3304C1818.21 35.3304 1866.57 35.748 1869.71 37.8361C1873.06 40.1329 1873.48 42.2209 1872.22 50.5731C1871.59 56.0019 1871.38 60.3868 1872.01 60.3868C1872.64 60.3868 1878.08 57.6724 1884.15 54.3315C1890.01 50.7819 1902.57 45.5618 1928.53 36.3745L2182.87 35.9568C2382.15 35.5392 2437.83 35.9568 2440.13 38.0449C2442.02 39.7153 2442.64 43.4738 2442.02 48.9026C2441.39 53.9139 2409.78 125.742 2364.15 225.341C2321.86 317.841 2285.65 395.098 2283.76 397.186C2281.88 399.274 2275.18 402.824 2269.32 404.912C2263.25 407.209 2255.92 409.088 2252.99 409.088C2250.06 409.088 2247.76 409.714 2247.76 410.758C2247.55 411.593 2251.32 414.725 2256.13 418.066C2260.74 421.198 2265.55 425.792 2266.81 428.506C2268.69 432.474 2260.32 452.31 2201.29 580.306C2164.24 661.113 2131.79 730.227 2129.49 733.776C2127.18 737.117 2121.95 741.711 2117.97 743.799C2111.07 747.14 2068.99 747.349 1301.59 746.931C498.389 746.305 492.528 746.305 481.224 742.129C475.153 739.832 466.99 735.029 463.431 731.688C459.454 727.93 456.104 722.292 455.267 717.49C454.43 713.314 454.848 705.797 456.104 700.786C457.36 695.983 463.85 679.696 470.548 664.871C477.456 650.046 482.899 636.892 483.108 635.639C483.108 634.386 479.759 634.177 474.107 635.013C469.292 635.848 438.939 636.474 406.703 636.474C350.184 636.683 347.672 636.892 338.67 641.277C333.019 644.2 327.576 649.002 325.064 653.387C322.761 657.355 314.179 677.191 305.596 697.236C297.223 717.281 288.85 735.447 286.757 737.744C284.873 739.832 280.058 742.964 276.29 744.425C270.848 746.722 246.984 747.349 155.925 747.349C67.7976 747.349 41.6314 746.931 38.4915 744.843C35.3515 742.546 34.9328 740.249 35.5608 731.688C36.3982 723.545 50.4233 692.016 100.034 586.57C134.783 512.445 165.555 447.508 168.276 441.87C170.997 436.441 176.858 428.089 181.045 423.495C185.441 418.693 191.512 413.473 200.513 409.088L196.117 403.241C192.977 399.065 191.93 395.724 192.768 390.295C193.396 386.328 220.818 323.896 253.892 251.442C291.153 170.008 317.528 115.093 322.971 107.367C327.785 100.477 338.88 88.1576 347.253 80.2231C355.835 72.0798 369.233 61.6396 377.396 56.8371C385.351 52.2435 397.911 46.397 405.028 43.8914C412.354 41.5945 424.496 38.4625 432.241 37.4185C441.661 35.9568 521.206 35.3304 877.695 36.3745L889.208 40.9681C895.697 43.4738 903.652 48.6938 907.42 52.8699C913.49 59.5516 914.327 61.8484 914.327 72.2886C914.327 80.2231 912.653 88.784 909.513 96.9273C906.582 103.818 900.093 119.269 894.65 131.38C889.208 143.49 885.44 153.722 886.068 154.348C886.696 154.975 891.092 151.634 896.116 146.831C900.93 142.238 916.63 127.83 931.074 114.676C945.518 101.521 965.613 82.7287 976.08 72.915C986.337 62.8924 1000.15 51.4083 1006.43 47.2322C1012.71 42.8473 1021.71 38.0449 1026.32 36.3745C1033.23 33.8688 1048.3 33.4512 1190.43 34.2864V34.2864ZM2472.58 62.4748H2483.67C2489.74 62.4748 2497.28 63.5188 2500.42 64.7717C2505.86 66.8597 2506.28 67.4861 2505.02 76.6734C2504.19 83.1463 2477.81 144.117 2425.9 259.794C2382.99 355.008 2346.77 434.353 2345.31 436.023C2344.05 437.485 2339.65 440.199 2335.68 441.87C2331.7 443.54 2323.54 445.837 2307.42 449.387L2315.79 455.651C2320.4 459.2 2325.21 463.585 2326.68 465.256C2328.14 467.135 2329.4 469.849 2329.4 471.102C2329.4 472.564 2296.32 543.557 2256.13 628.749C2211.33 723.336 2180.56 786.186 2177 789.736C2173.86 792.868 2167.59 796.417 2162.98 797.461C2158.37 798.505 2128.65 799.341 2039.48 799.341L2025.87 828.782H2046.17C2062.71 828.573 2067.73 829.408 2071.71 832.331C2074.85 834.837 2076.74 838.387 2076.74 842.354C2076.95 845.904 2070.46 863.443 2062.5 881.818C2050.99 907.709 2046.17 916.479 2039.89 921.908C2035.71 925.875 2028.59 929.842 2024.19 931.095C2020.01 932.139 1999.28 933.183 1978.14 933.183C1954.07 933.183 1940.04 932.348 1940.04 931.095C1940.04 929.842 1951.56 902.907 1965.37 870.96C1979.4 839.222 1992.17 809.99 1996.56 799.549L1840.61 799.758L1795.61 901.863H1801.89C1805.24 901.863 1808.17 902.28 1808.17 902.907C1808.17 903.533 1804.82 911.05 1793.51 935.271L1774.46 934.854C1757.09 934.227 1755.21 933.81 1751.23 929.007C1748.3 925.249 1747.46 922.117 1748.3 917.523C1749.13 914.182 1760.44 886.62 1773.63 856.553C1786.81 826.276 1797.7 801.22 1797.7 800.593C1797.7 799.967 1793.93 799.549 1789.33 799.549C1781.37 799.549 1780.74 799.967 1775.93 810.616C1773 816.462 1767.56 823.771 1763.79 826.694C1757.72 831.287 1754.37 832.123 1709.57 834.002L1695.96 864.905C1688.64 881.818 1682.57 896.016 1682.57 896.643C1682.57 897.269 1694.71 897.687 1709.78 897.687C1730.5 897.687 1736.78 898.313 1736.16 900.401C1735.74 901.654 1732.18 909.797 1721.29 933.601L1680.27 932.766C1642.38 932.139 1638.61 931.722 1634.63 927.963C1631.7 925.249 1630.03 921.281 1630.24 917.105C1630.24 913.347 1637.35 893.511 1646.14 873.257C1654.94 852.794 1664.36 831.914 1666.87 826.694C1669.38 821.474 1676.08 813.33 1691.99 799.341L1345.55 799.549L1336.13 822.518H1293.21L1303.68 799.549H1033.65L1037.83 803.725C1040.13 806.022 1042.02 810.407 1042.02 813.748C1042.02 816.88 1037.62 829.199 1032.39 841.31C1027.16 853.421 1021.29 865.114 1018.99 867.41C1016.9 869.707 1011.25 873.466 1006.64 875.762C1001.83 878.059 998.059 880.774 998.059 882.027C998.059 883.279 999.943 891.214 1002.04 899.775C1006.01 915.226 1006.01 915.644 998.059 933.183H952.007V911.259C952.007 893.093 951.379 889.335 948.867 889.335C946.774 889.335 942.378 897.269 927.306 932.139L905.117 932.766C888.58 932.974 882.928 932.557 882.928 930.678C882.928 929.216 887.324 918.149 892.557 906.039C897.79 893.928 910.56 865.114 939.447 799.549H732.211L721.744 822.518H700.811C689.298 822.518 679.878 822.1 679.878 821.474C679.878 820.847 681.134 817.924 682.809 814.792C684.274 811.451 686.158 806.857 686.995 804.352C688.251 799.758 687.623 799.549 667.318 799.549L662.504 810.616C659.573 817.089 654.549 823.771 649.944 827.32C642.617 832.749 641.152 832.958 618.126 832.958C596.146 832.958 593.843 833.375 591.96 837.134C590.704 839.431 590.076 841.728 590.285 842.354C590.704 842.98 599.286 845.277 609.753 847.783C621.894 850.497 630.267 853.629 633.407 856.553C636.337 859.476 638.012 863.652 638.012 868.037C638.012 871.586 634.663 882.444 630.686 892.049C626.499 901.445 620.847 912.303 618.126 916.061C615.195 919.611 608.915 924.831 603.891 927.337C595.727 931.722 591.959 932.139 550.512 932.557C516.182 932.974 506.134 932.557 506.134 930.678C506.134 929.216 509.274 921.073 519.741 897.687H550.512C579.4 897.687 581.702 897.478 583.586 893.511C584.633 891.214 585.68 888.499 585.68 887.247C585.68 885.994 578.353 883.697 569.352 881.818C560.56 879.939 550.722 877.015 547.372 875.554C544.232 873.883 540.464 870.334 538.999 867.41C536.906 863.025 537.115 860.311 539.418 853.212C540.883 848.409 545.488 837.969 549.256 829.826C554.489 819.177 559.095 813.122 575.632 800.593L559.095 798.297C550.094 797.044 539.418 794.538 535.44 792.868C531.463 790.988 526.021 787.648 523.299 785.142C520.787 782.845 517.229 777.834 515.554 774.493C513.879 771.152 512.623 767.811 512.833 767.185C513.251 766.767 516.81 767.185 520.787 768.229C525.393 769.691 815.942 770.317 1327.75 770.317C1767.56 770.317 2130.74 769.691 2134.72 768.855C2138.7 768.02 2144.77 764.47 2148.33 760.921C2152.51 756.536 2178.89 702.874 2226.83 601.395C2266.6 517.248 2299.25 446.255 2299.67 443.958C2300.09 441.035 2298 436.859 2293.39 432.474C2289.62 428.715 2284.81 425.166 2282.72 424.748C2280.83 424.122 2279.16 422.869 2279.16 421.616C2279.16 420.572 2280.83 419.528 2282.72 419.528C2284.81 419.528 2291.51 418.066 2297.37 416.396C2303.44 414.725 2311.19 410.758 2314.53 407.626C2318.93 403.45 2341.54 354.799 2396.59 232.232L2472.58 62.4748ZM411.308 659.651C434.753 659.651 453.802 659.86 453.802 660.069C453.802 660.278 451.081 666.959 441.242 688.884H419.262C407.121 688.884 394.771 689.719 392.05 690.972C389.119 692.016 384.723 695.148 382.42 697.653C379.908 700.159 374.675 708.929 363.581 731.688L384.095 732.941C395.399 733.776 408.377 735.656 412.982 737.326C417.588 738.996 425.333 742.337 430.148 744.843C435.171 747.349 444.173 754.239 450.243 760.294C456.314 766.35 464.059 775.955 467.408 781.801C470.758 787.439 475.153 798.297 477.247 805.813C479.34 813.122 481.015 825.023 481.015 831.914C481.015 838.804 479.549 849.662 477.875 856.344C475.991 863.025 472.223 873.257 469.083 879.312C466.152 885.367 458.198 895.39 451.918 901.863C445.429 908.127 435.381 916.061 429.729 919.193C423.868 922.326 414.448 926.502 408.796 928.381C400.004 931.095 383.676 931.93 306.224 932.557C228.772 933.392 214.329 933.183 215.375 930.678C216.212 929.216 219.98 921.073 230.866 897.478L298.898 897.687L293.664 886.62C290.943 880.565 286.966 869.498 285.082 862.19C282.57 852.377 281.942 842.98 282.57 828.782C283.198 817.715 284.245 806.649 286.338 799.549H194.652C144.412 799.549 99.8251 798.714 96.0572 797.879C91.6612 796.835 87.8933 794.538 86.6373 791.615C84.9627 788.065 84.9627 784.516 89.5679 770.317H190.046C256.194 770.317 292.409 769.482 296.176 768.02C299.316 766.767 304.131 763.635 306.852 761.13C309.574 758.624 313.969 752.36 316.691 747.349C319.203 742.129 326.739 724.589 333.228 708.72C339.926 692.642 347.462 676.147 350.184 672.388C352.905 668.63 358.347 664.036 362.115 662.575C367.139 660.487 380.536 659.651 411.308 659.651V659.651ZM806.941 826.694C814.268 826.694 822.013 827.529 824.316 828.782C826.618 829.826 828.502 832.123 828.502 834.002C828.502 835.672 828.921 837.134 829.549 837.134C829.968 837.134 834.991 834.628 840.434 831.705C848.807 827.32 853.203 826.485 867.228 826.485C878.532 826.485 885.44 827.529 888.58 829.617C892.138 832.123 893.394 834.837 893.185 840.684C893.185 845.695 886.696 863.025 856.343 932.139L834.991 932.557C818.873 932.974 814.058 932.557 814.686 930.469C815.105 929.007 822.222 912.512 830.386 893.928C838.55 875.345 845.249 859.476 845.249 859.058C845.249 858.432 841.69 858.223 829.549 859.058L797.521 932.139L776.379 932.557C760.261 932.974 755.446 932.557 756.074 930.469C756.493 929.007 763.61 912.512 771.774 893.928C779.938 875.345 786.636 859.476 786.636 859.058C786.636 858.432 783.078 858.223 770.937 859.058L738.909 932.139L717.767 932.557C706.044 932.766 696.834 932.348 697.043 931.304C697.462 930.26 707.51 906.665 741.63 828.782H756.702C770.518 828.782 771.983 828.991 771.983 832.958C771.983 835.255 772.192 836.925 772.402 836.925C772.82 836.925 777.635 834.628 783.496 831.705C791.242 827.947 797.103 826.694 806.941 826.694V826.694ZM1424.05 826.694C1437.65 826.485 1441.63 827.111 1446.03 830.452C1449.79 833.584 1451.05 836.299 1450.84 841.519C1450.63 845.277 1443.3 864.905 1434.3 885.159C1425.51 905.204 1416.93 924.205 1415.46 927.337C1412.53 932.974 1412.11 933.183 1392.65 933.183C1380.71 933.183 1372.76 932.139 1372.76 931.095C1372.76 929.842 1379.25 913.973 1387.41 895.599C1395.37 877.224 1402.07 861.146 1402.07 860.102C1402.07 858.849 1398.09 858.223 1384.9 859.058L1352.87 933.183H1332.36C1320.22 933.183 1312.05 932.139 1312.05 931.095C1312.05 929.842 1321.89 906.665 1355.59 829.826L1387.41 828.782L1387.2 840.266L1392.02 835.672C1394.53 833.167 1399.14 830.035 1402.07 828.991C1404.79 827.738 1414.84 826.694 1424.05 826.694V826.694ZM1118.84 828.782C1149.82 828.782 1159.24 829.199 1159.03 831.287C1159.03 832.749 1149.2 855.926 1115.91 932.139H1100.42C1085.77 932.139 1084.93 931.722 1083.88 922.743L1077.6 927.963C1073.63 931.095 1067.35 933.601 1061.28 934.436C1055.83 935.063 1046.21 935.271 1039.93 934.645C1030.92 933.81 1027.57 932.557 1024.64 928.59C1022.55 925.875 1020.88 921.908 1020.88 919.611C1021.09 917.105 1026.32 903.116 1032.81 888.291C1039.3 873.257 1046.83 856.761 1049.55 851.75C1052.28 846.53 1057.93 839.848 1062.11 837.134C1066.3 834.211 1071.74 831.287 1074.26 830.452C1076.56 829.617 1096.65 828.991 1118.84 828.782V828.782ZM1236.07 828.782C1258.88 828.782 1272.28 829.408 1272.28 830.87C1272.28 831.914 1270.19 836.925 1267.89 841.728C1265.58 846.53 1260.56 852.794 1257 855.3C1251.14 859.267 1247.58 859.893 1211.58 860.102L1203.2 877.851C1198.6 887.455 1194.83 896.434 1194.83 897.687C1194.83 898.94 1203.83 899.775 1217.86 899.775C1230.42 899.775 1240.88 900.401 1240.88 901.236C1240.88 902.072 1237.74 909.589 1227.28 933.183H1155.06L1149.4 927.337C1145.01 922.743 1144.17 920.446 1145.43 915.435C1146.06 911.885 1152.54 896.016 1159.45 879.939C1166.57 863.861 1174.32 847.783 1176.83 844.442C1179.34 840.892 1185.62 835.881 1190.64 833.375C1199.23 828.991 1202.78 828.782 1236.07 828.782V828.782ZM1539.6 828.782C1570.58 828.782 1580 829.199 1579.79 831.287C1579.79 832.749 1568.69 859.058 1555.3 889.961C1538.34 928.59 1528.71 948.008 1524.52 952.393C1520.97 955.734 1515.52 959.91 1512.38 961.372C1507.99 963.669 1497.94 964.295 1427.81 963.46L1440.79 933.183L1468 932.557C1491.87 932.139 1495.22 931.513 1495.64 928.381C1496.06 925.04 1494.17 924.831 1476.38 924.831C1465.28 924.831 1454.61 923.787 1452.31 922.743C1450 921.49 1447.49 917.732 1447.07 914.391C1446.23 909.797 1449.37 899.984 1458.58 878.268C1465.49 861.981 1473.87 845.904 1477.01 842.563C1480.15 839.222 1486.43 834.837 1491.03 832.54C1498.15 829.199 1504.85 828.782 1539.6 828.782V828.782ZM1856.73 828.782H1877.45C1897.97 828.782 1898.18 828.782 1896.71 833.375C1896.08 835.881 1888.97 852.377 1866.78 901.863L1885.83 900.819L1918.06 828.573H1938.37C1956.79 828.573 1958.67 828.991 1957.63 832.331C1957 834.419 1946.95 857.805 1913.88 933.183H1898.6C1883.94 933.183 1883.52 932.974 1883.52 922.743L1875.57 927.963C1871.38 930.886 1864.48 933.81 1860.5 934.436C1856.31 935.063 1847.1 935.271 1839.77 934.854C1828.68 934.227 1825.96 933.183 1822.4 929.007C1819.26 925.04 1818.63 921.908 1819.47 917.523C1820.1 913.973 1828.89 892.675 1838.73 869.916L1856.73 828.782ZM674.226 832.958H717.557L704.16 862.817C697.043 879.103 686.995 901.654 673.598 933.183H652.665C633.616 933.183 631.732 932.766 632.779 929.634C633.407 927.546 643.036 904.995 654.13 879.521L674.226 832.958ZM1309.96 832.958C1321.47 832.958 1330.89 833.167 1330.89 833.375C1330.89 833.584 1321.26 855.926 1287.77 932.139L1267.47 932.557C1253.44 932.974 1247.16 932.348 1247.37 930.678C1247.58 929.425 1256.58 907.709 1267.47 882.235C1278.35 856.761 1287.77 835.255 1288.19 834.419C1288.82 833.584 1298.45 832.958 1309.96 832.958V832.958Z" fill="#242124"/>
<path d="M434.962 103.4C441.242 100.476 452.546 96.7179 460.081 95.0474C471.385 92.5418 501.738 92.1242 643.245 92.333C801.917 92.7506 813.43 92.9594 821.175 96.5091C825.781 98.5971 831.223 101.938 833.316 103.817C835.41 105.696 837.922 110.081 838.759 113.631C839.806 117.181 839.806 123.862 838.759 128.874C837.712 133.676 827.874 157.062 816.779 181.074C805.476 204.878 795.009 226.593 793.334 229.517C791.451 232.44 786.217 238.913 781.612 243.715C776.797 248.726 767.796 255.408 761.516 258.749C755.236 261.881 742.677 266.057 733.885 267.936C724.884 269.816 708.556 271.277 697.671 271.277C686.786 271.277 677.784 271.904 677.784 272.948C677.994 273.783 692.228 294.663 710.021 319.302C727.605 343.941 742.467 366.7 743.305 370.041C744.351 374.008 743.723 376.931 740.793 380.481C736.815 385.075 736.606 385.075 601.591 385.075H601.588L532.3 271.068L495.667 271.277C465.105 271.277 457.779 271.904 451.918 275.036C447.94 276.915 442.079 281.926 439.148 285.893C436.008 289.861 425.542 310.532 415.913 331.621C404.609 356.469 395.817 372.755 391.421 377.14C386.607 381.943 382.211 384.448 375.931 385.284C370.907 385.91 347.881 386.119 324.436 385.701C289.478 385.284 281.523 384.448 279.848 381.943C278.802 380.272 278.383 375.47 279.011 371.503C279.639 367.535 302.247 316.796 329.25 258.749C371.116 168.964 380.117 151.215 389.956 139.314C396.236 131.379 406.493 121.357 412.354 116.972C418.425 112.378 428.682 106.323 434.962 103.4Z" fill="#EF443E"/>
<path d="M350.183 779.087C353.742 777.416 360.231 774.702 364.836 773.031C369.86 771.57 378.233 770.734 385.769 771.361C393.096 771.778 402.725 774.284 408.795 777.416C414.447 780.131 422.82 786.603 427.216 791.406C431.612 796.417 437.055 805.813 439.358 812.077C442.707 820.847 443.544 826.485 442.707 836.09C442.079 842.98 439.986 852.168 438.311 856.344C436.427 860.728 430.984 868.663 426.17 873.883C421.146 879.312 413.401 885.576 408.795 888.082C402.097 891.631 396.864 892.467 381.583 892.467C366.301 892.467 361.278 891.631 354.37 887.873C349.764 885.367 342.438 879.73 338.042 875.345C333.646 870.96 327.994 863.234 325.482 858.014C322.97 852.794 320.668 842.98 320.249 836.09C319.621 828.155 320.458 819.803 322.552 813.121C324.435 807.275 329.878 798.296 334.902 792.45C339.926 786.812 346.624 780.757 350.183 779.087Z" fill="white" fill-opacity="0.9"/>
<path d="M962.682 853.003C962.891 852.585 964.775 847.783 966.869 842.563C970.637 833.167 970.846 832.958 989.686 832.958L986.336 840.683C984.452 845.068 982.568 849.871 982.15 851.124C981.731 852.794 977.544 853.838 971.893 853.838C966.659 853.838 962.682 853.42 962.682 853.003Z" fill="white" fill-opacity="0.9"/>
<path d="M1067.14 903.951L1076.77 882.026L1086.61 860.102H1094.56C1099.79 860.102 1102.72 861.146 1102.72 862.608C1102.72 864.069 1098.75 874.092 1084.93 904.16L1067.14 903.951Z" fill="white" fill-opacity="0.9"/>
<path d="M1497.1 888.708C1497.52 886.202 1500.45 878.686 1503.38 872.004C1508.61 860.311 1508.82 860.102 1516.99 860.102C1521.59 860.102 1525.57 860.311 1525.57 860.52C1525.57 860.937 1522.22 868.454 1518.24 877.224C1511.13 893.093 1510.5 893.511 1503.38 893.511C1497.1 893.511 1496.26 892.884 1497.1 888.708Z" fill="white" fill-opacity="0.9"/>
<path d="M1996.87 897.44C1997.59 895.641 2000.99 887.118 2005.14 877.85C2012.89 860.311 2013.1 860.102 2020.43 860.102C2024.4 860.102 2027.96 860.728 2027.96 861.564C2027.96 862.608 2024.4 871.377 2012.05 899.775H2004.31C1999.91 899.775 1996.56 898.939 1996.77 897.687L1996.87 897.44Z" fill="white" fill-opacity="0.9"/>
<path d="M1027.16 111.752C1031.34 107.367 1038.46 101.103 1042.86 97.7623L1051.23 91.707L1155.89 92.751L1160.92 100.059C1163.43 104.026 1168.04 114.884 1170.97 124.071C1174.32 134.72 1183.11 184.416 1195.04 261.881C1205.3 328.49 1213.67 383.196 1213.67 383.405C1213.67 383.822 1191.48 384.031 1164.48 384.031C1127.01 384.031 1115.07 383.405 1114.45 381.317C1114.03 380.064 1111.52 366.909 1108.79 352.084C1106.07 337.468 1103.14 325.775 1102.51 325.984C1101.68 326.402 1095.4 334.127 1088.49 343.315C1081.58 352.502 1070.91 365.448 1053.53 384.031H933.795C838.341 384.031 814.058 383.405 815.314 381.317C816.152 380.064 862.414 320.555 918.095 249.353C973.986 178.151 1022.97 116.346 1027.16 111.752Z" fill="#FEFEFE"/>
<path d="M1410.23 102.774C1416.72 99.8503 1427.39 96.3007 1434.3 94.8391C1444.14 92.751 1488.73 92.1246 1635.26 91.9158C1802.93 91.4982 1824.07 91.9158 1826.38 94.8391C1827.84 96.7183 1828.47 100.686 1827.84 104.862C1827.21 108.411 1821.35 122.401 1814.66 135.556C1807.33 150.381 1800.63 161.03 1796.86 163.744C1791.24 167.898 1788.1 167.92 1644.31 168.947L1641.96 168.964C1510.29 169.799 1492.29 170.426 1486.64 173.349C1483.29 175.228 1477.22 180.448 1473.03 185.042C1468.63 190.053 1457.54 211.142 1444.98 238.078C1432 266.266 1424.05 286.311 1423.42 292.158C1422.58 299.675 1423.21 302.18 1426.35 304.268C1429.28 306.357 1461.72 306.774 1575.6 306.774C1689.69 306.774 1722.13 307.192 1725.06 309.28C1727.99 311.368 1728.83 313.665 1727.99 318.258C1727.36 321.808 1721.29 335.798 1714.6 349.37C1707.9 363.151 1699.94 376.097 1697.01 378.185C1694.29 380.482 1688.64 382.987 1684.45 384.24C1680.06 385.284 1602.81 385.91 1300.33 385.075L1289.87 379.855C1282.12 375.888 1278.35 372.129 1274.58 365.239C1270.82 357.722 1269.98 353.546 1270.61 344.359C1271.44 334.754 1278.77 317.423 1314.98 239.957C1342.62 181.075 1361.46 143.281 1366.69 136.6C1371.29 130.962 1380.3 121.983 1386.78 116.972C1393.48 111.961 1403.95 105.488 1410.23 102.774Z" fill="#FEFEFE"/>
<path d="M1932.51 98.3887C1939.42 96.0919 1946.95 93.7951 1949.25 93.1687C1951.56 92.751 2038.85 92.1246 2142.88 91.9158C2311.6 91.4982 2332.75 91.9158 2335.05 94.8391C2336.51 96.7183 2337.14 100.686 2336.51 104.862C2335.89 108.411 2330.44 121.357 2324.37 133.468C2316.21 149.963 2311.81 156.436 2298.83 164.997L1995.31 164.788L1986.1 169.382C1979.19 172.931 1975.42 176.69 1971.86 183.58C1969.14 188.8 1967.47 194.647 1968.09 196.735C1968.72 198.614 1972.7 201.12 1977.1 202.373C1981.91 203.625 2041.36 204.461 2132.42 204.461C2248.81 204.461 2280.62 204.878 2282.72 206.966C2284.18 208.428 2285.44 211.56 2285.44 213.857C2285.44 216.154 2280.62 227.847 2274.76 239.957C2268.48 252.694 2261.78 263.552 2258.43 266.058C2253.03 270.205 2248.86 270.233 2098.91 271.256L2095.79 271.278C1975.84 272.113 1937.74 272.948 1934.18 275.036C1931.67 276.289 1927.07 281.091 1924.13 285.476C1921.2 289.652 1918.9 296.125 1918.9 300.092C1918.9 304.268 1920.16 307.192 1922.04 307.818C1923.93 308.445 1992.38 308.862 2074.43 309.071C2156.49 309.28 2225.78 309.906 2228.5 310.741C2231.22 311.368 2234.57 313.456 2235.62 315.126C2237.29 317.423 2234.57 325.149 2225.36 345.194C2217.2 363.36 2210.92 374.009 2206.31 378.185C2201.29 382.361 2196.47 384.449 2188.52 385.284C2182.45 385.91 2095.16 386.119 1994.26 385.702C1859.66 385.075 1809.21 384.24 1803.35 382.361C1798.96 380.899 1792.05 376.723 1788.07 373.173C1782.21 367.745 1780.32 364.195 1779.28 356.887C1778.65 351.667 1779.28 343.106 1780.53 337.677C1781.79 332.039 1801.05 288.817 1823.03 241.628C1845.01 194.229 1866.57 150.798 1870.96 144.952C1875.36 139.314 1882.9 130.544 1887.92 125.951C1892.94 121.148 1902.16 113.84 1908.43 109.873C1914.92 105.906 1925.6 100.686 1932.51 98.3887Z" fill="#FEFEFE"/>
<path d="M654.13 453.354C658.526 449.387 665.225 444.584 669.202 442.496C675.482 439.155 681.552 438.529 710.021 438.529C739.118 438.529 744.142 438.946 747.282 442.078C749.375 444.166 751.05 448.551 751.05 452.519C751.05 456.695 739.118 484.674 719.441 527.061C702.276 564.437 687.623 597.428 686.786 600.769C685.948 604.736 686.786 607.242 689.298 609.538C692.438 612.253 710.44 612.879 812.384 613.714C878.113 614.341 932.33 615.176 932.539 615.385C932.748 615.594 932.958 617.682 932.958 619.979C932.958 622.275 929.608 632.298 925.212 642.321C919.77 654.431 914.746 662.574 909.513 667.377C905.117 671.135 898.628 674.894 894.86 675.52C891.092 676.147 820.129 676.355 737.234 675.938C602.007 675.311 585.889 674.894 580.237 671.971C576.888 670.091 572.073 666.333 569.77 663.827C566.421 660.069 565.793 656.519 565.793 645.244C566.002 631.88 567.049 629.166 606.194 545.854C639.477 474.652 647.641 458.991 654.13 453.354Z" fill="#FEFEFE"/>
<path d="M1121.15 459.409C1125.33 454.189 1132.45 447.299 1137.05 444.166L1145.22 438.32H1184.15C1215.34 438.32 1223.93 438.946 1227.69 441.452C1230.21 443.122 1234.18 448.551 1236.28 453.563C1238.37 458.365 1241.72 469.014 1243.6 476.949C1245.49 485.092 1253.23 531.446 1260.56 580.306C1268.09 629.166 1274.37 670.718 1274.17 672.806C1274.17 676.147 1271.03 676.355 1194.62 676.355L1191.27 656.102C1189.39 644.826 1187.29 633.968 1186.67 632.089C1185.62 629.166 1182.9 631.254 1174.52 642.529C1168.45 650.255 1159.45 660.904 1145.43 676.147L1048.72 676.355C995.547 676.355 951.797 676.147 951.797 675.938C951.797 675.52 988.011 628.748 1032.6 571.954C1076.98 515.159 1116.75 464.42 1121.15 459.409Z" fill="#FEFEFE"/>
<path d="M259.544 453.563C264.567 450.639 273.569 446.463 280.058 444.375C290.524 441.034 303.503 440.617 430.775 440.617C535.44 440.408 571.864 441.034 577.934 443.122C582.33 444.375 587.982 447.925 590.494 450.431C593.843 453.98 594.89 457.739 594.681 464.003C594.471 470.267 589.029 484.465 574.794 514.324C558.885 548.359 553.652 557.338 546.325 563.811C541.511 568.404 534.394 573.416 530.626 575.295C526.858 577.174 517.647 580.097 510.321 581.559C499.854 583.647 471.804 584.482 391.421 584.482C302.247 584.482 285.291 584.9 280.058 587.614C274.825 590.12 270.847 596.801 257.869 623.737C249.286 641.694 241.122 658.816 239.657 661.53C238.192 664.245 234.424 668.63 231.284 671.344C225.632 676.147 224.585 676.355 186.278 676.355C152.576 676.564 146.715 676.147 143.993 673.223C141.9 670.857 141.342 667.864 142.319 664.245C142.947 661.113 156.135 631.88 171.625 599.098C195.907 547.315 200.303 539.172 214.119 529.984H456.942L464.896 525.391C469.083 522.885 474.107 517.665 475.781 514.115C477.456 510.357 478.921 506.807 478.921 506.181C478.921 505.555 477.456 503.675 475.781 502.005C473.06 499.29 455.895 498.873 348.09 498.873C239.239 498.873 223.329 498.455 222.492 495.741C221.864 494.07 224.167 488.642 227.307 483.839C230.656 478.828 237.355 471.311 241.96 467.135C246.774 462.75 254.729 456.695 259.544 453.563Z" fill="#FEFEFE"/>
<path d="M1420.91 453.354C1425.93 450.222 1435.35 446.255 1441.84 444.166C1452.31 440.826 1466.33 440.617 1610.35 441.034L1610.91 441.036C1765.47 441.452 1767.35 441.457 1767.97 445.628C1768.39 447.925 1764 459.618 1758.35 471.728C1751.65 486.345 1746.2 494.906 1742.65 497.411C1737.41 500.752 1727.16 500.961 1618.09 501.587C1503.59 502.005 1498.99 502.214 1492.29 506.181C1488.31 508.478 1482.66 513.698 1479.31 517.665C1476.17 521.632 1466.54 540.425 1457.75 559.426C1448.96 578.427 1441.42 596.801 1440.79 600.142C1440.16 603.692 1440.58 607.868 1441.63 609.538C1443.51 612.253 1459.84 612.67 1564.09 613.297C1676.5 613.714 1684.66 613.923 1686.55 617.473C1688.01 619.979 1686.13 626.243 1679.43 640.859C1674.4 651.717 1667.5 664.036 1657.87 675.311H1499.19C1353.5 675.311 1339.69 675.103 1332.99 671.762C1328.8 669.882 1323.78 665.08 1321.68 661.322C1318.75 656.102 1317.92 651.717 1318.75 642.947C1319.59 633.551 1326.08 617.891 1355.18 556.294C1385.32 492.191 1392.02 479.663 1401.02 470.058C1406.67 463.794 1415.67 456.277 1420.91 453.354Z" fill="#FEFEFE"/>
<path d="M1834.33 452.936C1838.94 450.222 1847.73 446.255 1854.22 444.166C1864.68 440.826 1878.5 440.617 2177.63 441.452L2177.21 447.716C2177.21 451.266 2173.03 461.915 2168.42 471.728C2163.61 481.542 2157.75 491.356 2155.44 493.653C2151.47 497.62 2147.7 497.829 2024.19 498.873C1915.97 499.708 1896.29 500.334 1892.11 503.049C1889.6 504.719 1885.41 509.731 1883.32 514.115C1881.01 518.292 1879.34 522.259 1879.34 522.885C1879.34 523.512 1880.59 525.391 1882.48 527.061C1885.2 529.776 1902.15 530.193 2009.12 530.193C2130.53 530.193 2132.63 530.193 2134.72 534.369C2136.4 537.71 2134.93 542.513 2127.81 557.547C2123 568.195 2116.51 578.427 2113.79 580.724C2108.76 584.482 2103.11 584.691 1984 584.482C1863.01 584.482 1859.24 584.691 1852.54 588.658C1848.78 590.955 1844.17 596.384 1842.5 600.769C1840.19 605.989 1839.77 609.538 1841.03 611.626C1842.91 614.341 1860.08 614.967 1968.3 615.803C2076.32 616.638 2093.69 617.264 2095.58 619.979C2097.04 622.275 2094.95 628.748 2087.2 645.035C2080.71 658.816 2074.64 668.63 2064.59 676.564L1910.74 676.355C1815.7 676.355 1753.74 675.52 1748.93 674.267C1744.74 673.223 1738.25 669.883 1734.9 666.959C1731.13 663.827 1727.99 658.816 1727.36 655.057C1726.74 651.299 1727.16 643.991 1728.62 638.771C1729.88 633.551 1745.37 598.889 1762.53 561.514C1779.91 524.138 1796.65 489.894 1799.79 485.301C1802.93 480.707 1810.05 472.772 1815.7 467.552C1821.35 462.332 1829.73 455.651 1834.33 452.936Z" fill="#FEFEFE"/>
<path d="M488.759 179.196C491.899 174.602 497.342 169.382 500.691 167.92C505.925 165.623 524.764 164.997 595.099 164.997C661.666 164.788 684.274 165.415 688.251 167.503C691.391 168.964 693.693 172.305 694.112 175.228C694.531 178.152 692.647 183.58 689.925 187.548C687.204 191.515 681.762 196.735 677.784 199.032C670.667 203.208 666.899 203.417 581.493 204.043C522.671 204.461 490.643 204.043 486.876 202.582C481.852 200.702 481.224 199.449 482.061 194.021C482.689 190.471 485.62 183.998 488.759 179.196Z" fill="#242124"/>
<path d="M990.314 307.818C990.523 306.148 1011.46 277.124 1036.58 243.089C1061.9 209.263 1082.84 181.701 1083.26 182.119C1083.67 182.328 1088.07 210.307 1093.3 244.133C1098.54 277.959 1102.72 306.983 1102.72 308.445C1102.72 310.324 1089.95 310.95 1046.2 310.95C997.431 310.95 989.686 310.533 990.314 307.818Z" fill="#242124"/>
<path d="M1095.4 612.671C1096.03 611 1112.56 588.032 1132.45 561.514C1152.34 535.205 1169.08 514.324 1169.92 515.16C1170.55 515.995 1174.31 537.293 1177.87 562.558C1181.64 587.823 1184.99 610.165 1185.62 612.253C1186.46 615.594 1183.32 615.803 1140.4 615.803C1100.42 615.803 1094.56 615.385 1095.4 612.671Z" fill="#242124"/>
<path d="M346.625 801.429C349.764 797.67 355.626 793.076 359.603 790.988C363.58 788.9 368.604 787.23 370.697 787.021C373.628 787.021 374.256 788.9 374.256 796.835C374.047 806.022 373.419 807.275 366.302 811.66C359.184 816.254 357.928 816.462 349.555 813.748C344.741 812.286 340.763 810.407 340.763 809.363C340.763 808.528 343.275 804.978 346.625 801.429Z" fill="#242124"/>
<path d="M396.864 811.66C389.537 807.066 389.118 806.231 389.328 796.626C389.537 786.812 389.746 786.604 394.98 788.065C397.91 788.692 403.562 791.406 407.54 793.912C411.517 796.417 416.331 801.011 418.634 804.143C420.727 807.484 422.402 810.198 422.402 810.407C422.402 810.825 418.425 812.286 413.61 813.748C405.237 816.462 403.981 816.254 396.864 811.66Z" fill="#242124"/>
<path d="M369.86 832.123C369.651 828.782 371.325 825.859 374.465 823.562C377.187 821.891 380.745 820.43 382.211 820.43C383.467 820.43 386.607 822.309 388.909 824.606C391.212 826.903 393.096 830.452 393.096 832.331C393.096 834.419 391.421 837.76 389.328 839.848C387.444 841.936 383.676 843.607 381.164 843.398C378.443 843.398 374.884 841.936 373.209 840.266C371.535 838.596 369.86 834.837 369.86 832.123Z" fill="#242124"/>
<path d="M338.461 850.706C336.367 846.112 334.483 838.804 334.483 834.419C334.483 828.991 335.321 826.694 337.623 826.694C339.298 826.694 343.903 827.947 347.671 829.617C352.695 831.705 354.998 834.419 357.091 841.101C359.394 849.244 359.394 850.08 353.951 856.97C349.136 863.025 347.671 863.861 345.159 861.773C343.485 860.311 340.554 855.3 338.461 850.706Z" fill="#242124"/>
<path d="M406.074 840.892C408.377 832.958 409.842 830.661 415.075 829.199C418.634 827.947 422.821 827.111 424.705 826.903C427.635 826.694 428.054 828.364 427.426 836.09C427.007 841.31 424.705 849.245 422.402 853.838C420.099 858.432 417.378 862.608 416.122 863.234C415.075 863.861 411.726 861.146 408.795 857.388C403.772 851.124 403.562 850.288 406.074 840.892Z" fill="#242124"/>
<path d="M363.371 875.345C361.068 873.257 361.696 871.378 366.511 865.322C371.535 859.058 373.628 858.014 381.164 858.014C388.909 857.805 390.793 858.849 395.817 865.322C398.957 869.29 401.469 872.839 401.469 873.048C401.678 873.466 398.538 874.927 394.77 876.598C390.584 878.477 383.467 879.312 376.977 878.686C371.116 878.268 364.836 876.806 363.371 875.345Z" fill="#242124"/>
</svg>
